PathFileType	4	(X/Y/Z)	Walking04.trc	
DataRate	CameraRate	NumFrames	NumMarkers	Units	OrigDataRate	OrigDataStartFrame	OrigNumFrames	
100.00	100.00	12	19	mm	100.00	349	98	
Frame#	Time	RPSI			LPSI			RASI			LASI			RTHI			RKNE			RHFB			RTUB			RSHN			RANK			RLCA			RSTL			RPCA			RCPG			RHEE			RP5M			RP1M			RD5M			RTOE			
		X1	Y1	Z1	X2	Y2	Z2	X3	Y3	Z3	X4	Y4	Z4	X5	Y5	Z5	X6	Y6	Z6	X7	Y7	Z7	X8	Y8	Z8	X9	Y9	Z9	X10	Y10	Z10	X11	Y11	Z11	X12	Y12	Z12	X13	Y13	Z13	X14	Y14	Z14	X15	Y15	Z15	X16	Y16	Z16	X17	Y17	Z17	X18	Y18	Z18	X19	Y19	Z19	

1	0.000	-761.37952	887.65540	-54.40410	-769.96063	902.12872	-145.75346	-560.41394	849.75806	-13.55742	-590.37842	837.50128	-253.59663	-550.70557	555.37781	32.33886	-490.78717	427.98880	1.90411	-482.52655	387.07013	1.61916	-423.32648	399.93930	-48.62103	-408.46371	326.22662	-54.60767	-404.13272	60.78903	-30.23376	-407.70206	35.62109	-36.99462	-391.10535	41.46624	-99.95307	-433.67923	51.08805	-76.24374	-452.94766	33.22848	-80.24070	-428.94791	14.48913	-81.26175	-310.60788	30.95350	-2.62214	-299.78104	87.81608	-75.16245	-280.10648	40.43480	7.12443	-252.30505	72.95097	-28.06729 
2	0.010	-743.57495	887.61053	-53.71495	-751.75586	901.73560	-145.39766	-542.71588	850.11798	-12.15735	-571.56097	837.60632	-252.10315	-533.19995	554.74603	32.73697	-477.35916	425.35809	2.17909	-470.25375	384.46454	2.32926	-408.18060	398.63544	-49.00779	-394.45218	323.99878	-55.67843	-396.93106	61.26622	-29.76192	-402.57986	36.22421	-36.72049	-387.04266	40.58295	-100.20255	-428.34305	53.11005	-75.52476	-448.79196	37.11177	-79.82624	-426.46497	16.66338	-80.88654	-306.50235	24.72302	-3.53345	-290.41669	79.54940	-76.60860	-275.39749	31.76683	6.03740	-243.76353	61.28446	-28.80828 
3	0.020	-725.48663	888.19336	-52.87339	-733.79041	901.77283	-145.15704	-525.42493	850.49628	-10.53320	-552.62781	837.97528	-250.00951	-519.12604	553.76135	32.52320	-465.54904	424.22177	3.61248	-457.84619	384.31927	3.38748	-392.86819	399.01614	-49.43136	-381.58319	324.29178	-56.48827	-391.97604	61.02965	-29.09406	-399.35147	36.39285	-36.02981	-384.79489	40.17437	-100.15633	-424.74295	54.89421	-73.97959	-446.11978	40.30450	-78.40045	-423.75555	17.97596	-80.25906	-304.04984	19.84172	-4.16940	-285.36163	72.89438	-78.58075	-272.17850	25.29634	4.29539	-238.94260	52.45472	-31.61088 
4	0.030	-707.00629	889.26062	-52.04288	-716.32233	901.93353	-144.96031	-508.53610	851.20886	-8.73048	-534.04901	838.44934	-247.36107	-507.60837	553.55249	32.80641	-452.83966	425.87869	5.69856	-442.88275	387.12274	4.92833	-378.10556	399.40451	-49.03851	-369.84631	325.24918	-57.03141	-389.32062	60.54671	-28.71645	-397.30042	36.34977	-35.75797	-384.17621	39.70250	-99.99632	-422.53259	56.33679	-73.84240	-444.47284	42.42080	-76.89026	-421.59979	18.72787	-79.67377	-302.99396	16.28925	-3.83166	-283.09561	68.77766	-79.61964	-269.61639	20.31057	3.06553	-236.82976	45.05335	-34.59048 
5	0.040	-689.77277	891.29773	-51.01061	-699.48242	902.07227	-144.80899	-492.09540	852.55127	-7.20567	-515.75806	839.03448	-244.30775	-495.67545	554.44135	34.44043	-437.30820	429.37582	7.79269	-426.83493	390.53812	6.75319	-363.91293	399.83490	-48.54416	-358.53418	325.49481	-57.29487	-386.63516	61.23802	-28.57985	-395.33136	36.48064	-35.86234	-384.38235	38.95906	-99.85893	-420.46439	58.23136	-74.08311	-443.31284	43.64211	-75.99152	-422.98984	20.59006	-78.67191	-302.65561	14.52619	-2.80124	-280.78961	65.26276	-80.61652	-267.94241	17.94664	3.73790	-234.47252	40.17080	-35.29916 
6	0.050	-673.29095	893.63861	-50.41112	-683.17096	902.09308	-144.87463	-476.18164	854.82153	-5.77157	-497.93985	839.56110	-241.08461	-482.07135	556.20441	37.12888	-420.62314	433.13449	9.52793	-410.64606	393.61688	8.34633	-350.75229	399.94830	-48.08982	-347.93253	324.88647	-57.18158	-384.67770	61.83471	-28.43621	-394.38544	36.93780	-35.71122	-383.80396	38.89661	-99.93337	-418.95044	59.19228	-73.57118	-442.36972	44.86089	-75.59337	-423.00989	21.31398	-78.31264	-302.59457	13.24494	-2.24807	-279.14566	63.46228	-80.91673	-267.22305	16.68102	4.62802	-232.43045	37.76867	-35.66798 
7	0.060	-657.52759	896.05035	-50.45197	-667.43463	902.09790	-145.33253	-460.40430	857.78442	-4.32148	-481.42841	839.82025	-238.06880	-467.26154	559.02289	39.90478	-403.76804	436.21277	10.86845	-395.18671	395.83624	9.58291	-338.76688	399.65070	-47.79642	-338.28259	323.96942	-56.59092	-383.86685	62.07999	-28.50144	-394.19489	37.45227	-35.53073	-383.48495	38.94363	-100.01361	-418.27225	59.91818	-73.28268	-441.88510	45.50339	-75.44443	-422.91458	21.62814	-78.11572	-302.55768	12.72046	-2.01254	-278.59659	62.38966	-81.36000	-266.91574	16.18636	5.03384	-231.56154	36.42202	-35.96301 
8	0.070	-642.71747	898.32983	-50.84523	-652.16742	902.01416	-146.14560	-445.16501	860.75977	-2.74885	-465.42383	839.91608	-235.31821	-451.94592	562.49701	42.50737	-388.14041	438.13620	11.88947	-381.34012	396.88174	10.37896	-327.85715	399.33667	-47.72541	-329.74155	322.91736	-55.77913	-383.29126	62.17654	-28.47986	-393.76752	37.59177	-35.62711	-383.25089	39.01842	-99.97907	-417.69186	60.38798	-73.04952	-441.58395	45.96105	-75.20667	-422.84842	21.78101	-77.89850	-302.48425	12.41812	-1.88534	-278.39282	61.53114	-81.81157	-266.73444	15.98323	5.19743	-230.99875	35.80811	-36.47560 
9	0.080	-628.89667	900.53162	-51.48825	-637.27063	901.77277	-147.16081	-430.86105	863.50592	-0.89995	-449.90909	839.87305	-232.81873	-436.02405	565.83752	44.89209	-374.56464	438.58469	12.93312	-370.10739	396.78281	11.18752	-317.39288	399.17886	-46.78849	-322.33292	321.64322	-54.70790	-382.75897	62.21526	-28.28723	-393.17062	37.53968	-35.88955	-383.08435	39.12799	-99.85139	-417.10373	60.90504	-72.87263	-441.38351	46.50019	-74.85474	-422.90616	21.87625	-77.71162	-302.50293	12.08467	-1.72088	-278.21591	61.22851	-81.69965	-266.67792	15.77117	5.44738	-230.55708	35.37584	-36.53988 
10	0.090	-614.97461	902.16888	-52.36658	-622.67700	901.44977	-148.13762	-416.97925	866.05737	1.11657	-434.79675	839.69202	-230.47104	-420.06476	568.21033	47.16812	-364.21539	437.76471	14.17060	-361.86151	395.87115	12.52021	-308.05475	398.59308	-44.91260	-315.90845	320.17987	-53.38464	-382.46222	62.16481	-28.09870	-393.02939	37.60031	-35.80681	-383.05518	39.25115	-99.71500	-416.83530	61.26756	-72.66562	-441.34973	46.88655	-74.53565	-423.01636	21.94007	-77.54707	-302.57260	11.74418	-1.55287	-278.18790	61.00792	-81.56366	-266.77130	15.70411	5.58121	-230.49710	35.00474	-36.31096 
11	0.100	-601.26959	903.48132	-53.09491	-608.39697	901.22388	-148.80017	-403.44083	868.33344	3.29891	-420.02295	839.54181	-228.23322	-405.55255	569.70947	49.07218	-357.03555	436.43823	15.51472	-356.33780	394.69882	14.09299	-302.34897	395.74652	-43.76525	-310.33658	318.46649	-51.87294	-382.22150	62.03286	-27.91491	-392.97104	37.61050	-35.65604	-383.03067	39.39386	-99.66673	-416.59610	61.57779	-72.38704	-441.27905	47.37437	-74.21191	-423.14960	22.01283	-77.41311	-302.62677	11.46279	-1.41326	-278.18179	60.80546	-81.48455	-266.98004	15.86027	5.48223	-230.33904	34.83376	-36.41689 
12	0.110	-587.73425	904.61133	-53.52839	-594.31543	901.14557	-149.04938	-390.00162	870.18158	5.87165	-405.71790	839.50183	-226.20032	-394.03333	571.27759	50.24963	-352.00812	435.07172	16.97094	-352.45993	393.53778	15.45632	-296.84424	393.39746	-41.75693	-305.47778	316.57339	-50.31451	-381.99289	61.92216	-27.84565	-392.96979	37.65642	-35.59887	-382.98199	39.52008	-99.62611	-416.38910	61.93779	-72.23325	-441.12653	47.95396	-73.93575	-423.24911	22.08294	-77.36572	-302.66385	11.26282	-1.28753	-278.18457	60.64601	-81.40106	-267.05405	15.81889	5.55898	-230.23213	34.64254	-36.37265 
